HIERARCHY
ROOT Hips
{
    OFFSET 0.000000 0.000000 0.000000
    CHANNELS 6 Xposition Yposition Zposition Zrotation Xrotation Yrotation
    JOINT Spine
    {
        OFFSET -0.000000 7.246840 0.000000
        CHANNELS 3 Zrotation Xrotation Yrotation
        JOINT Spine1
        {
            OFFSET -0.000000 20.289354 0.000000
            CHANNELS 3 Zrotation Xrotation Yrotation
            JOINT Neck
            {
                OFFSET -0.000000 20.206032 1.836912
                CHANNELS 3 Zrotation Xrotation Yrotation
                JOINT Head
                {
                    OFFSET -0.000000 12.372654 -1.767522
                    CHANNELS 3 Zrotation Xrotation Yrotation
                    End Site
                    {
                        OFFSET -0.000000 22.094025 0.000000
                    }
                }
            }
            JOINT LeftShoulder
            {
                OFFSET 3.465871 17.201674 -0.568930
                CHANNELS 3 Zrotation Xrotation Yrotation
                JOINT LeftArm
                {
                    OFFSET 14.070313 0.000000 0.000000
                    CHANNELS 3 Zrotation Xrotation Yrotation
                    JOINT LeftForeArm
                    {
                        OFFSET 26.549477 0.000000 0.000000
                        CHANNELS 3 Zrotation Xrotation Yrotation
                        JOINT LeftHand
                        {
                            OFFSET 18.880413 0.000000 0.000000
                            CHANNELS 3 Zrotation Xrotation Yrotation
                            End Site
                            {
                                OFFSET 13.256415 0.000000 0.000000
                            }
                        }
                    }
                }
            }
            JOINT RightShoulder
            {
                OFFSET -3.526370 17.201674 -0.568930
                CHANNELS 3 Zrotation Xrotation Yrotation
                JOINT RightArm
                {
                    OFFSET -14.070313 0.000000 0.000000
                    CHANNELS 3 Zrotation Xrotation Yrotation
                    JOINT RightForeArm
                    {
                        OFFSET -26.549477 0.000000 0.000000
                        CHANNELS 3 Zrotation Xrotation Yrotation
                        JOINT RightHand
                        {
                            OFFSET -18.880413 0.000000 0.000000
                            CHANNELS 3 Zrotation Xrotation Yrotation
                            End Site
                            {
                                OFFSET -13.256415 0.000000 0.000000
                            }
                        }
                    }
                }
            }
        }
    }
    JOINT LeftUpLeg
    {
        OFFSET 8.837609 0.000000 0.000000
        CHANNELS 3 Zrotation Xrotation Yrotation
        JOINT LeftLeg
        {
            OFFSET -0.000000 -41.345005 0.000000
            CHANNELS 3 Zrotation Xrotation Yrotation
            JOINT LeftFoot
            {
                OFFSET -0.000000 -35.500874 0.000000
                CHANNELS 3 Zrotation Xrotation Yrotation
                JOINT LeftToeBase
                {
                    OFFSET -0.000000 -5.744446 13.256415
                    CHANNELS 3 Zrotation Xrotation Yrotation
                    End Site
                    {
                        OFFSET -0.000000 0.000000 3.535044
                    }
                }
            }
        }
    }
    JOINT RightUpLeg
    {
        OFFSET -8.837609 0.000000 0.000000
        CHANNELS 3 Zrotation Xrotation Yrotation
        JOINT RightLeg
        {
            OFFSET -0.000000 -41.345005 0.000000
            CHANNELS 3 Zrotation Xrotation Yrotation
            JOINT RightFoot
            {
                OFFSET -0.000000 -35.500874 0.000000
                CHANNELS 3 Zrotation Xrotation Yrotation
                JOINT RightToeBase
                {
                    OFFSET -0.000000 -5.744446 13.256415
                    CHANNELS 3 Zrotation Xrotation Yrotation
                    End Site
                    {
                        OFFSET -0.000000 0.000000 3.535044
                    }
                }
            }
        }
    }
}
MOTION
Frames:    8
Frame Time:    0.010000
1.765041    82.415573    -10.902236    3.803787    6.042013    -2.991569    1.569813    -10.386682    4.095660    -9.610148    4.151395    4.302110    21.045551    31.476603    -15.771475    -9.349637    -25.769634    -16.528711    14.436211    8.016310    6.891696    -72.451508    79.594116    16.987822    15.503567    0.494296    -82.419289    32.759338    2.027702    -39.663052    -17.917997    -10.342441    13.167158    27.166739    -30.429087    35.178623    -24.504686    -38.147293    81.884094    -29.199522    -18.678740    -1.760898    -3.644716    4.372331    1.172062    -1.988955    -10.510658    -4.657338    2.264941    1.967112    -3.393481    -0.527039    -2.829810    0.750755    -7.568438    3.284276    0.013559    8.199906    -11.780659    2.051795    0.332284    0.788735    -3.762161    -1.116574    -0.439112    2.011781    
1.758652    82.421921    -10.955284    3.825043    6.124776    -2.923918    1.686953    -10.237854    4.222760    -9.734446    4.025565    4.414566    20.974190    31.499617    -15.477509    -9.189767    -25.997652    -16.191019    14.425893    8.114751    6.925022    -70.652939    79.842293    15.282458    15.500444    0.446816    -82.387383    32.751198    1.960304    -39.700443    -18.027630    -10.412064    13.261618    27.402330    -30.514545    35.876190    -25.747026    -39.079540    81.806969    -27.953241    -18.803726    -1.513458    -3.663968    4.235158    1.138172    -1.959266    -10.476765    -4.791383    2.228804    1.827095    -3.308848    -0.666493    -2.750412    0.948926    -7.584136    3.208185    -0.015374    8.202267    -11.845362    2.021069    0.331367    0.845866    -3.779013    -1.143498    -0.431600    2.060116    
1.725710    82.429298    -11.025689    3.854103    6.187577    -2.797286    1.682845    -10.045880    4.287660    -9.758650    3.863191    4.469665    21.019869    31.521788    -15.259659    -9.204126    -26.249178    -15.978382    14.435955    7.976179    6.770034    -70.942619    79.835655    15.662812    15.495246    0.504066    -82.379333    32.744366    1.982315    -39.793560    -18.104965    -10.577529    13.451913    27.534744    -30.427700    36.427677    -26.081200    -39.843578    82.170769    -28.505817    -19.399555    -1.039224    -3.680405    4.096953    1.140681    -1.925493    -10.441198    -4.857736    2.161232    1.855286    -3.350349    -0.519807    -2.722425    0.739953    -7.573584    3.153258    -0.100320    8.177629    -11.860137    2.432206    0.345287    0.834494    -4.231528    -1.141098    -0.392927    2.054929    
1.714527    82.430962    -11.070828    3.867034    6.262643    -2.743811    1.769655    -9.924349    4.402754    -9.816308    3.760520    4.572163    20.885775    31.533487    -15.051824    -8.993402    -26.503803    -15.724437    14.415027    7.960307    6.703803    -70.184593    79.910904    14.977727    15.455635    0.562112    -82.361420    32.777046    1.969180    -39.847191    -18.223614    -10.625280    13.541992    27.662563    -30.333265    37.222641    -27.010145    -40.596062    81.632896    -27.701067    -19.883295    -0.323534    -3.678277    4.004480    1.065385    -1.930751    -10.469822    -4.846401    1.990054    1.799058    -3.486934    -0.909463    -2.528159    1.293035    -7.584229    3.094797    -0.134825    8.194495    -11.942623    2.396590    0.364497    0.913107    -4.203324    -1.157770    -0.412197    2.085386    
1.700411    82.430443    -11.116460    3.881946    6.341276    -2.689679    1.836537    -9.826310    4.509153    -9.866240    3.675000    4.668578    22.018980    31.124599    -14.971263    -10.798702    -26.558220    -16.223999    14.448278    7.935059    6.641354    -69.500046    80.044182    14.302175    15.373277    0.621523    -82.315720    32.835396    1.887394    -39.943619    -18.341169    -10.700642    13.623389    27.453514    -30.075859    37.947735    -27.314970    -41.242058    80.969254    -27.465773    -20.894829    0.584676    -3.706445    3.906651    1.035432    -1.843238    -10.506080    -4.906260    1.878227    1.820430    -3.407582    -0.734232    -2.499447    1.043718    -7.599681    3.033124    -0.178133    8.221260    -12.073822    1.869781    0.363503    1.021528    -3.671942    -1.167810    -0.380831    2.102751    
1.689607    82.429138    -11.153750    3.901284    6.403605    -2.647978    1.882562    -9.747735    4.614523    -9.878160    3.592132    4.764514    21.353607    31.349092    -14.845069    -9.589950    -26.985729    -15.735970    14.429911    8.013347    6.592935    -68.232903    80.244110    13.042489    15.264770    0.644623    -82.287048    32.979221    1.770357    -39.878464    -18.460634    -10.929745    13.915551    26.917818    -29.815680    38.227718    -27.630527    -41.524197    79.822510    -26.833950    -21.640615    1.511162    -3.741014    3.843591    0.977235    -1.797033    -10.552582    -4.842218    1.833182    1.835960    -3.425508    -0.734814    -2.490425    1.044487    -7.632985    2.998149    -0.193159    8.257216    -12.118719    2.332496    0.363584    1.031995    -4.151505    -1.182077    -0.377947    2.128368    
1.680127    82.426544    -11.187794    3.924198    6.448978    -2.617565    1.997978    -9.724909    4.702315    -10.271006    3.857721    4.879171    21.503483    30.738367    -14.651649    -9.208546    -26.973087    -15.508101    14.808582    7.654054    6.896663    -67.557648    80.654068    12.148538    15.131587    0.742004    -82.186943    33.119602    1.659498    -39.903297    -18.204763    -11.600302    13.808834    26.328781    -29.337294    38.748703    -27.849787    -41.427803    78.240501    -25.519140    -22.097301    2.193164    -3.793678    3.796285    0.985057    -1.735347    -10.598351    -4.836704    1.824026    1.839903    -3.410327    -0.821982    -2.732841    1.170167    -7.673292    2.980465    -0.218873    8.300982    -12.208967    2.352536    0.387730    1.082895    -4.144065    -1.187536    -0.365871    2.137915    
1.671794    82.421280    -11.216087    3.931365    6.481515    -2.594130    2.053128    -9.641852    4.797097    -10.305047    3.762121    4.963284    21.434242    30.717115    -14.637068    -8.801273    -27.194910    -15.374003    14.773072    7.621562    6.825987    -67.047226    80.848152    11.707863    15.055501    0.732378    -82.150764    33.202663    1.531201    -39.928314    -18.349325    -11.696409    13.913172    25.655693    -29.286686    39.313526    -27.442125    -40.797859    76.415894    -23.813894    -22.581749    3.463300    -3.840201    3.770961    0.992080    -1.659429    -10.649624    -4.815033    1.798997    1.841900    -3.408257    -0.722628    -2.474584    1.027063    -7.709692    2.978705    -0.196290    8.362282    -12.311600    2.303087    0.383909    1.147506    -4.113761    -1.212162    -0.373149    2.182414    
